# xmcd
#
# Track frame offsets: 
#        150
#        20859
#        33383
#        55315
#        76709
#        95567
#        127121
#        151309
#        172508
#        193262
#        212989
#        232534
#        251254
#        275433
#        291092
#        309257
#        326539
#
# Disc length: 4602 seconds
#
# Revision: 0
# Processed by: cddbd v1.5.2PL0 Copyright (c) Steve Scherf et al.
# Submitted via: ExactAudioCopy v0.99pb4
#
DISCID=df11f811
DTITLE=Various Artist - Super Blues Ballads CD1
DYEAR=2005
DGENRE=Blues
TTITLE0=Eric Clapton - Laila
TTITLE1=J.J.Cale - City Girl
TTITLE2=Santana feat Rob Tomas - Smooth
TTITLE3=Chris Rea - The Blue Cafe
TTITLE4=Tony Joe White - Gumbo John
TTITLE5=Livin' Blues - Skid Row
TTITLE6=B.B.King - Darling What Happened
TTITLE7=Snowy White and White Flames - TheTime Has Come
TTITLE8=Dana Gilespie - Where Blue Begins
TTITLE9=Joe Cocker - My Father's Son
TTITLE10=Mark Knopfler - Darling Pretty
TTITLE11=Tito and  Tarantula - After Dark
TTITLE12=Goodman Murphy Band - Same Old Blues
TTITLE13=Steve Phillips - Will You Miss Me
TTITLE14=Billy Joel and Ray Charles - Baby Grand
TTITLE15=Peter Green - Apostle
TTITLE16=Stevie Ray Vaughan - The Sky Is Crying
EXTD=
EXTT0=
EXTT1=
EXTT2=
EXTT3=
EXTT4=
EXTT5=
EXTT6=
EXTT7=
EXTT8=
EXTT9=
EXTT10=
EXTT11=
EXTT12=
EXTT13=
EXTT14=
EXTT15=
EXTT16=
PLAYORDER=
